<?xml version="1.0" standalone="no"?>
<!DOCTYPE svg PUBLIC "-//W3C//DTD SVG 20010904//EN"
 "http://www.w3.org/TR/2001/REC-SVG-20010904/DTD/svg10.dtd">
<svg version="1.0" xmlns="http://www.w3.org/2000/svg"
 width="500.000000pt" height="500.000000pt" viewBox="0 0 500.000000 500.000000"
 preserveAspectRatio="xMidYMid meet">

<g transform="translate(0.000000,500.000000) scale(0.100000,-0.100000)"
fill="#000000" stroke="none">
<path d="M2455 4916 c-11 -7 -171 -100 -355 -206 -184 -106 -497 -286 -695
-399 -198 -114 -499 -287 -670 -385 -170 -98 -320 -189 -332 -202 l-23 -25 0
-1199 0 -1199 23 -24 c12 -14 184 -118 382 -233 198 -114 475 -273 615 -354
140 -81 296 -171 345 -199 50 -29 185 -107 300 -173 116 -67 260 -150 320
-186 61 -36 122 -65 136 -65 16 0 99 41 200 100 372 216 766 443 1034 598 154
89 381 220 505 291 124 72 252 145 284 164 33 18 68 42 78 52 17 17 18 69 18
1226 0 951 -3 1212 -12 1225 -7 9 -143 91 -303 183 -676 388 -1681 966 -1740
1000 -46 27 -82 30 -110 10z m-64 -293 c0 -5 2 -207 4 -450 l4 -443 -27 -18
c-69 -49 -863 -502 -879 -502 -10 0 -34 10 -53 23 -19 13 -192 113 -383 222
-283 160 -346 200 -335 210 12 11 277 167 813 476 127 73 358 207 515 297 157
90 294 171 305 178 22 16 35 18 36 7z m486 -139 c131 -75 301 -174 378 -219
77 -45 232 -135 345 -200 369 -212 685 -397 692 -404 12 -10 -771 -454 -792
-448 -10 3 -92 47 -182 100 -90 52 -286 165 -435 252 l-273 158 0 454 c0 389
2 454 14 450 8 -3 122 -67 253 -143z m-107 -1101 c124 -72 289 -167 367 -212
79 -45 145 -86 148 -91 3 -4 -25 -25 -62 -46 -72 -39 -636 -363 -689 -395
l-31 -19 -279 161 c-153 88 -330 190 -391 226 -62 35 -113 68 -113 72 0 4 93
61 208 126 114 66 290 167 391 227 167 98 187 107 205 95 12 -8 122 -72 246
-144z m-2053 23 c59 -35 235 -136 391 -225 l282 -163 -2 -521 -3 -522 -165
-96 c-488 -284 -616 -356 -622 -352 -12 6 -10 1943 1 1943 5 0 58 -29 118 -64z
m3693 -906 c0 -533 -3 -970 -6 -970 -3 0 -181 100 -395 222 l-389 222 2 524 3
524 210 122 c116 67 289 168 385 224 96 56 178 102 183 102 4 0 7 -436 7 -970z
m-2685 320 c137 -78 658 -382 664 -386 7 -6 8 -866 2 -890 -6 -20 -20 -14
-207 95 -110 64 -287 166 -392 226 l-192 110 0 458 c0 252 3 456 8 454 4 -2
57 -33 117 -67z m1685 -378 c0 -415 -1 -450 -17 -464 -10 -8 -99 -62 -198
-120 -99 -57 -266 -155 -372 -216 -105 -62 -196 -112 -202 -112 -8 0 -11 134
-11 453 l0 454 308 178 c169 98 343 199 387 226 44 26 86 48 93 48 9 1 12 -95
12 -447z m-1616 -824 c155 -89 333 -191 396 -227 63 -35 135 -78 160 -93 l45
-29 1 -444 c0 -244 -2 -448 -5 -453 -6 -9 -67 25 -641 358 -871 504 -1040 604
-1040 609 1 3 107 67 238 141 130 74 305 174 387 222 83 49 156 86 164 83 8
-3 140 -78 295 -167z m1904 68 c97 -57 273 -159 390 -226 173 -99 211 -125
200 -135 -13 -13 -258 -155 -743 -432 -154 -88 -425 -244 -602 -345 -177 -102
-325 -183 -328 -180 -3 3 -5 207 -5 454 l0 449 37 22 c124 74 859 496 866 496
4 1 87 -46 185 -103z"/>
</g>
</svg>
